<svg xmlns="http://www.w3.org/2000/svg" width="1200" height="900" fill="none"><defs><linearGradient id="a" x1="160" x2="1030" y1="90" y2="820" gradientUnits="userSpaceOnUse"><stop stop-color="#FFF5F5"/><stop offset="1" stop-color="#FFF"/></linearGradient><linearGradient id="b" x1="224" x2="960" y1="180" y2="710" gradientUnits="userSpaceOnUse"><stop stop-color="#FFEBEE"/><stop offset="1" stop-color="#FFF5F5"/></linearGradient></defs><path fill="url(#a)" d="M0 0h1200v900H0z"/><rect width="1052" height="756" x="74" y="72" fill="url(#b)" stroke="#F4D9DC" rx="40"/><rect width="210" height="70" x="130" y="124" fill="#111" rx="24"/><text x="184" y="168" fill="#FFF" font-family="Arial, Helvetica, sans-serif" font-size="32" font-weight="700">BAR</text><rect width="298" height="70" x="732" y="132" fill="#E30613" rx="24"/><text x="782" y="176" fill="#FFF" font-family="Arial, Helvetica, sans-serif" font-size="28" font-weight="700">Ficha automatica</text><rect width="360" height="458" x="186" y="230" fill="#171717" rx="38"/><rect width="300" height="122" x="216" y="260" fill="#FFD54A" rx="20"/><text x="280" y="330" fill="#111" font-family="Arial, Helvetica, sans-serif" font-size="38" font-weight="700">Mix Smart</text><rect width="300" height="236" x="216" y="412" fill="#FFF" rx="28"/><rect width="300" height="68" x="216" y="412" fill="#E30613" rx="28"/><text x="250" y="454" fill="#FFF" font-family="Arial, Helvetica, sans-serif" font-size="18" font-weight="700">Bar e bebidas</text><text x="252" y="528" fill="#171717" font-family="Arial, Helvetica, sans-serif" font-size="20" font-weight="700">Agua</text><text x="426" y="528" fill="#E30613" font-family="Arial, Helvetica, sans-serif" font-size="16">R$ 5,00</text><text x="252" y="566" fill="#171717" font-family="Arial, Helvetica, sans-serif" font-size="20" font-weight="700">Espetinho</text><text x="408" y="566" fill="#E30613" font-family="Arial, Helvetica, sans-serif" font-size="16">R$ 10,00</text><rect width="232" height="42" x="250" y="598" fill="#1D4ED8" rx="21"/><text x="314" y="625" fill="#FFF" font-family="Arial, Helvetica, sans-serif" font-size="18" font-weight="700">Cobrar</text><rect width="372" height="330" x="636" y="262" fill="#FFF" stroke="#EFE3E4" rx="34"/><text x="678" y="320" fill="#171717" font-family="Arial, Helvetica, sans-serif" font-size="28" font-weight="700">Fluxo do bar</text><rect width="288" height="58" x="678" y="356" fill="#FFF0F2" rx="18"/><text x="714" y="392" fill="#E30613" font-family="Arial, Helvetica, sans-serif" font-size="22" font-weight="700">Pagamento aprovado</text><rect width="288" height="58" x="678" y="434" fill="#FFF7D8" rx="18"/><text x="716" y="470" fill="#111" font-family="Arial, Helvetica, sans-serif" font-size="22" font-weight="700">Ficha impressa</text><rect width="288" height="58" x="678" y="512" fill="#F5F7FF" rx="18"/><text x="714" y="548" fill="#1D4ED8" font-family="Arial, Helvetica, sans-serif" font-size="22" font-weight="700">Retirada liberada</text><text x="130" y="772" fill="#111" font-family="Arial, Helvetica, sans-serif" font-size="34" font-weight="700">Venda de bar sem fichas manuais</text></svg>