<svg xmlns="http://www.w3.org/2000/svg" width="1200" height="900" fill="none"><defs><linearGradient id="a" x1="90" x2="1060" y1="70" y2="830" gradientUnits="userSpaceOnUse"><stop stop-color="#101010"/><stop offset="1" stop-color="#1E1E1E"/></linearGradient><linearGradient id="b" x1="194" x2="532" y1="186" y2="420" gradientUnits="userSpaceOnUse"><stop stop-color="#F2C94C"/><stop offset="1" stop-color="#FACC15"/></linearGradient></defs><path fill="url(#a)" d="M0 0h1200v900H0z"/><rect width="1008" height="708" x="96" y="96" fill="#141414" stroke="#242424" rx="42"/><rect width="226" height="66" x="150" y="140" fill="#E30613" rx="22"/><text x="192" y="182" fill="#FFF" font-family="Arial, Helvetica, sans-serif" font-size="30" font-weight="700">BILHETERIA</text><rect width="388" height="504" x="170" y="238" fill="#171717" rx="40"/><rect width="324" height="126" x="202" y="268" fill="url(#b)" rx="20"/><text x="274" y="338" fill="#111" font-family="Arial, Helvetica, sans-serif" font-size="38" font-weight="700">PagBank</text><rect width="324" height="276" x="202" y="424" fill="#FFF" rx="28"/><rect width="324" height="70" x="202" y="424" fill="#E30613" rx="28"/><text x="240" y="468" fill="#FFF" font-family="Arial, Helvetica, sans-serif" font-size="18" font-weight="700">Ingressos</text><text x="236" y="542" fill="#111" font-family="Arial, Helvetica, sans-serif" font-size="22" font-weight="700">Pista</text><text x="422" y="542" fill="#E30613" font-family="Arial, Helvetica, sans-serif" font-size="16">R$ 60</text><text x="236" y="584" fill="#111" font-family="Arial, Helvetica, sans-serif" font-size="22" font-weight="700">VIP</text><text x="430" y="584" fill="#E30613" font-family="Arial, Helvetica, sans-serif" font-size="16">R$ 120</text><rect width="416" height="124" x="544" y="224" fill="#FFF" rx="28"/><text x="588" y="278" fill="#111" font-family="Arial, Helvetica, sans-serif" font-size="28" font-weight="700">Emissao automatica</text><text x="588" y="320" fill="#4B5563" font-family="Arial, Helvetica, sans-serif" font-size="22">Comprovante + ingresso na mesma operacao</text><rect width="416" height="258" x="544" y="382" fill="#FFF5F5" stroke="#F3D9DC" rx="28"/><text x="588" y="438" fill="#111" font-family="Arial, Helvetica, sans-serif" font-size="28" font-weight="700">Vantagens</text><text x="590" y="492" fill="#111" font-family="Arial, Helvetica, sans-serif" font-size="22">- Menos fila na entrada</text><text x="590" y="534" fill="#111" font-family="Arial, Helvetica, sans-serif" font-size="22">- Controle por evento</text><text x="590" y="576" fill="#111" font-family="Arial, Helvetica, sans-serif" font-size="22">- Relatorios em tempo real</text><text x="590" y="618" fill="#111" font-family="Arial, Helvetica, sans-serif" font-size="22">- Bilheteria organizada</text><rect width="290" height="72" x="544" y="668" fill="#FFF" stroke="#FFF" stroke-opacity=".12" opacity=".1" rx="24"/><text x="592" y="714" fill="#FFF" font-family="Arial, Helvetica, sans-serif" font-size="28" font-weight="700">Ticket impresso</text></svg>