<svg xmlns="http://www.w3.org/2000/svg" width="1200" height="900" fill="none"><defs><linearGradient id="a" x1="120" x2="1040" y1="70" y2="820" gradientUnits="userSpaceOnUse"><stop stop-color="#120B2D"/><stop offset=".5" stop-color="#0F172A"/><stop offset="1" stop-color="#111"/></linearGradient><filter id="b"><feGaussianBlur stdDeviation="22"/></filter></defs><path fill="url(#a)" d="M0 0h1200v900H0z"/><circle cx="172" cy="128" r="78" fill="#4F46E5" filter="url(#b)" opacity=".85"/><circle cx="1052" cy="132" r="68" fill="#0EA5E9" filter="url(#b)" opacity=".85"/><circle cx="1036" cy="296" r="84" fill="#F97316" filter="url(#b)" opacity=".65"/><circle cx="190" cy="728" r="92" fill="#E30613" filter="url(#b)" opacity=".6"/><path fill="#1A1A1A" d="M0 640c156-52 300-50 442 10 162 68 288 84 458 40 114-29 204-26 300 20v190H0z"/><g opacity=".95"><circle cx="180" cy="690" r="26" fill="#2F2F2F"/><circle cx="248" cy="724" r="28" fill="#262626"/><circle cx="328" cy="700" r="24" fill="#333"/><circle cx="918" cy="706" r="26" fill="#303030"/><circle cx="990" cy="728" r="28" fill="#292929"/><circle cx="1062" cy="704" r="24" fill="#343434"/></g><rect width="252" height="70" x="758" y="118" fill="#FFF" opacity=".08" rx="22"/><text x="804" y="162" fill="#FFF" font-family="Arial, Helvetica, sans-serif" font-size="28" font-weight="700">Evento em operacao</text><rect width="352" height="462" x="424" y="208" fill="#181818" rx="34"/><rect width="292" height="116" x="454" y="238" fill="#FFD54A" rx="18"/><text x="524" y="304" fill="#111" font-family="Arial, Helvetica, sans-serif" font-size="34" font-weight="700">Mix Smart</text><rect width="292" height="246" x="454" y="384" fill="#FCFCFC" rx="24"/><rect width="292" height="72" x="454" y="384" fill="#E30613" rx="24"/><text x="488" y="428" fill="#FFF" font-family="Arial, Helvetica, sans-serif" font-size="18" font-weight="700">Venda em evento</text><rect width="232" height="42" x="484" y="486" fill="#F1F1F1" rx="12"/><text x="506" y="514" fill="#7B7B7B" font-family="Arial, Helvetica, sans-serif" font-size="16">Pesquisar produto</text><text x="492" y="566" fill="#171717" font-family="Arial, Helvetica, sans-serif" font-size="20" font-weight="700">Cerveja</text><text x="648" y="566" fill="#E30613" font-family="Arial, Helvetica, sans-serif" font-size="16">R$ 8,00</text><text x="492" y="602" fill="#171717" font-family="Arial, Helvetica, sans-serif" font-size="20" font-weight="700">Ingresso</text><text x="644" y="602" fill="#E30613" font-family="Arial, Helvetica, sans-serif" font-size="16">R$ 60,00</text><rect width="210" height="64" x="148" y="168" fill="#E30613" opacity=".92" rx="20"/><text x="186" y="209" fill="#FFF" font-family="Arial, Helvetica, sans-serif" font-size="26" font-weight="700">Filas menores</text><rect width="244" height="76" x="820" y="702" fill="#FFF" stroke="#FFF" stroke-opacity=".12" opacity=".1" rx="26"/><text x="862" y="750" fill="#FFF" font-family="Arial, Helvetica, sans-serif" font-size="28" font-weight="700">Velocidade</text></svg>