<svg xmlns="http://www.w3.org/2000/svg" width="1400" height="900" fill="none"><defs><linearGradient id="a" x1="140" x2="1260" y1="50" y2="860" gradientUnits="userSpaceOnUse"><stop stop-color="#FFF8E1"/><stop offset="1" stop-color="#FFFDF7"/></linearGradient><linearGradient id="c" x1="120" x2="600" y1="90" y2="640" gradientUnits="userSpaceOnUse"><stop stop-color="#F2C400"/><stop offset="1" stop-color="#FFD94C"/></linearGradient><linearGradient id="d" x1="794" x2="1194" y1="148" y2="512" gradientUnits="userSpaceOnUse"><stop stop-color="#E52138"/><stop offset="1" stop-color="#B71225"/></linearGradient><filter id="b" width="1300" height="780" x="50" y="50" color-interpolation-filters="sRGB"><feDropShadow dx="0" dy="22" flood-color="#000" flood-opacity=".12" stdDeviation="26"/></filter></defs><path fill="url(#a)" d="M0 0h1400v900H0z"/><circle cx="156" cy="126" r="84" fill="#F2C400" opacity=".14"/><circle cx="1260" cy="114" r="72" fill="#C9152B" opacity=".1"/><g filter="url(#b)"><rect width="1244" height="724" x="78" y="88" fill="#FFF" rx="34"/><rect width="1244" height="88" x="78" y="88" fill="#171717" rx="34"/><circle cx="128" cy="132" r="10" fill="#FF6E6E"/><circle cx="162" cy="132" r="10" fill="#FFD24A"/><circle cx="196" cy="132" r="10" fill="#44D17A"/><text x="248" y="141" fill="#FFF" font-family="Arial, Helvetica, sans-serif" font-size="30" font-weight="700">Painel gerencial . Agencia Mix</text><rect width="274" height="150" x="118" y="214" fill="url(#c)" rx="26"/><text x="150" y="266" fill="#171717" font-family="Arial, Helvetica, sans-serif" font-size="22" font-weight="700">Vendas totais</text><text x="150" y="328" fill="#171717" font-family="Arial, Helvetica, sans-serif" font-size="48" font-weight="700">R$ 82.450</text><rect width="274" height="150" x="418" y="214" fill="#FFF5F6" stroke="#F4D4D9" rx="26"/><text x="450" y="266" fill="#171717" font-family="Arial, Helvetica, sans-serif" font-size="22" font-weight="700">Ingressos</text><text x="450" y="328" fill="#C9152B" font-family="Arial, Helvetica, sans-serif" font-size="48" font-weight="700">1.248</text><rect width="274" height="150" x="718" y="214" fill="#F7F9FF" stroke="#D6DEFF" rx="26"/><text x="750" y="266" fill="#171717" font-family="Arial, Helvetica, sans-serif" font-size="22" font-weight="700">Caixas ativos</text><text x="750" y="328" fill="#1E4FCE" font-family="Arial, Helvetica, sans-serif" font-size="48" font-weight="700">18</text><rect width="264" height="150" x="1018" y="214" fill="#171717" rx="26"/><text x="1050" y="266" fill="#FFF" font-family="Arial, Helvetica, sans-serif" font-size="22" font-weight="700">Operadores</text><text x="1050" y="328" fill="#FFD94C" font-family="Arial, Helvetica, sans-serif" font-size="48" font-weight="700">43</text><rect width="610" height="344" x="118" y="394" fill="#FFF" stroke="#ECECEC" rx="28"/><text x="154" y="446" fill="#171717" font-family="Arial, Helvetica, sans-serif" font-size="26" font-weight="700">Vendas por horario</text><path stroke="#C9152B" stroke-linecap="round" stroke-linejoin="round" stroke-width="10" d="m164 654 78-56 78 22 78-102 78 42 78-92 78 32 60-70"/><path stroke="#E6E6E6" stroke-linecap="round" stroke-width="8" d="M164 688h520"/><path stroke="#F0F0F0" stroke-linecap="round" stroke-width="4" d="M164 608h520M164 528h520M164 448h520"/><circle cx="398" cy="518" r="9" fill="#F2C400"/><circle cx="554" cy="468" r="9" fill="#F2C400"/><circle cx="692" cy="430" r="9" fill="#F2C400"/><rect width="526" height="208" x="756" y="394" fill="url(#d)" rx="28"/><text x="794" y="450" fill="#FFF" font-family="Arial, Helvetica, sans-serif" font-size="26" font-weight="700">Formas de pagamento</text><rect width="130" height="62" x="794" y="488" fill="#FFF" opacity=".18" rx="18"/><rect width="130" height="62" x="946" y="488" fill="#FFF" opacity=".18" rx="18"/><rect width="130" height="62" x="1098" y="488" fill="#FFF" opacity=".18" rx="18"/><text x="846" y="528" fill="#FFF" font-family="Arial, Helvetica, sans-serif" font-size="24" font-weight="700">PIX</text><text x="978" y="528" fill="#FFF" font-family="Arial, Helvetica, sans-serif" font-size="24" font-weight="700">Cartao</text><text x="1118" y="528" fill="#FFF" font-family="Arial, Helvetica, sans-serif" font-size="24" font-weight="700">Dinheiro</text><rect width="252" height="110" x="756" y="628" fill="#FFF7D9" stroke="#F1E1A0" rx="24"/><text x="790" y="678" fill="#171717" font-family="Arial, Helvetica, sans-serif" font-size="22" font-weight="700">Sangrias</text><text x="790" y="716" fill="#171717" font-family="Arial, Helvetica, sans-serif" font-size="34" font-weight="700">R$ 6.300</text><rect width="252" height="110" x="1030" y="628" fill="#F7F9FF" stroke="#D6DEFF" rx="24"/><text x="1064" y="678" fill="#171717" font-family="Arial, Helvetica, sans-serif" font-size="22" font-weight="700">Fechamento</text><text x="1064" y="716" fill="#1E4FCE" font-family="Arial, Helvetica, sans-serif" font-size="34" font-weight="700">Conferido</text></g></svg>