<svg xmlns="http://www.w3.org/2000/svg" width="1200" height="900" viewBox="0 0 1200 900" fill="none">
  <defs>
    <linearGradient id="bg" x1="160" y1="90" x2="1030" y2="820" gradientUnits="userSpaceOnUse">
      <stop stop-color="#FFF5F5"/>
      <stop offset="1" stop-color="#FFFFFF"/>
    </linearGradient>
    <linearGradient id="red" x1="224" y1="180" x2="960" y2="710" gradientUnits="userSpaceOnUse">
      <stop stop-color="#FFEBEE"/>
      <stop offset="1" stop-color="#FFF5F5"/>
    </linearGradient>
  </defs>
  <rect width="1200" height="900" fill="url(#bg)"/>
  <rect x="74" y="72" width="1052" height="756" rx="40" fill="url(#red)" stroke="#F4D9DC"/>
  <rect x="130" y="124" width="210" height="70" rx="24" fill="#111111"/>
  <text x="184" y="168" font-family="Arial, Helvetica, sans-serif" font-size="32" font-weight="700" fill="#FFFFFF">BAR</text>
  <rect x="732" y="132" width="298" height="70" rx="24" fill="#E30613"/>
  <text x="782" y="176" font-family="Arial, Helvetica, sans-serif" font-size="28" font-weight="700" fill="#FFFFFF">Ficha automatica</text>
  <g>
    <rect x="186" y="230" width="360" height="458" rx="38" fill="#171717"/>
    <rect x="216" y="260" width="300" height="122" rx="20" fill="#FFD54A"/>
    <text x="280" y="330" font-family="Arial, Helvetica, sans-serif" font-size="38" font-weight="700" fill="#111111">Mix Smart</text>
    <rect x="216" y="412" width="300" height="236" rx="28" fill="#FFFFFF"/>
    <rect x="216" y="412" width="300" height="68" rx="28" fill="#E30613"/>
    <text x="250" y="454" font-family="Arial, Helvetica, sans-serif" font-size="18" font-weight="700" fill="#FFFFFF">Bar e bebidas</text>
    <text x="252" y="528" font-family="Arial, Helvetica, sans-serif" font-size="20" font-weight="700" fill="#171717">Agua</text>
    <text x="426" y="528" font-family="Arial, Helvetica, sans-serif" font-size="16" fill="#E30613">R$ 5,00</text>
    <text x="252" y="566" font-family="Arial, Helvetica, sans-serif" font-size="20" font-weight="700" fill="#171717">Espetinho</text>
    <text x="408" y="566" font-family="Arial, Helvetica, sans-serif" font-size="16" fill="#E30613">R$ 10,00</text>
    <rect x="250" y="598" width="232" height="42" rx="21" fill="#1D4ED8"/>
    <text x="314" y="625" font-family="Arial, Helvetica, sans-serif" font-size="18" font-weight="700" fill="#FFFFFF">Cobrar</text>
  </g>
  <g>
    <rect x="636" y="262" width="372" height="330" rx="34" fill="#FFFFFF" stroke="#EFE3E4"/>
    <text x="678" y="320" font-family="Arial, Helvetica, sans-serif" font-size="28" font-weight="700" fill="#171717">Fluxo do bar</text>
    <rect x="678" y="356" width="288" height="58" rx="18" fill="#FFF0F2"/>
    <text x="714" y="392" font-family="Arial, Helvetica, sans-serif" font-size="22" font-weight="700" fill="#E30613">Pagamento aprovado</text>
    <rect x="678" y="434" width="288" height="58" rx="18" fill="#FFF7D8"/>
    <text x="716" y="470" font-family="Arial, Helvetica, sans-serif" font-size="22" font-weight="700" fill="#111111">Ficha impressa</text>
    <rect x="678" y="512" width="288" height="58" rx="18" fill="#F5F7FF"/>
    <text x="714" y="548" font-family="Arial, Helvetica, sans-serif" font-size="22" font-weight="700" fill="#1D4ED8">Retirada liberada</text>
  </g>
  <text x="130" y="772" font-family="Arial, Helvetica, sans-serif" font-size="34" font-weight="700" fill="#111111">Venda de bar sem fichas manuais</text>
</svg>