<svg xmlns="http://www.w3.org/2000/svg" width="1200" height="900" viewBox="0 0 1200 900" fill="none">
  <defs>
    <linearGradient id="bg" x1="120" y1="70" x2="1040" y2="820" gradientUnits="userSpaceOnUse">
      <stop stop-color="#120B2D"/>
      <stop offset="0.5" stop-color="#0F172A"/>
      <stop offset="1" stop-color="#111111"/>
    </linearGradient>
    <filter id="blur"><feGaussianBlur stdDeviation="22"/></filter>
  </defs>
  <rect width="1200" height="900" fill="url(#bg)"/>
  <circle cx="172" cy="128" r="78" fill="#4F46E5" opacity="0.85" filter="url(#blur)"/>
  <circle cx="1052" cy="132" r="68" fill="#0EA5E9" opacity="0.85" filter="url(#blur)"/>
  <circle cx="1036" cy="296" r="84" fill="#F97316" opacity="0.65" filter="url(#blur)"/>
  <circle cx="190" cy="728" r="92" fill="#E30613" opacity="0.6" filter="url(#blur)"/>
  <path d="M0 640C156 588 300 590 442 650C604 718 730 734 900 690C1014 661 1104 664 1200 710V900H0V640Z" fill="#1A1A1A"/>
  <g opacity="0.95">
    <circle cx="180" cy="690" r="26" fill="#2F2F2F"/>
    <circle cx="248" cy="724" r="28" fill="#262626"/>
    <circle cx="328" cy="700" r="24" fill="#333333"/>
    <circle cx="918" cy="706" r="26" fill="#303030"/>
    <circle cx="990" cy="728" r="28" fill="#292929"/>
    <circle cx="1062" cy="704" r="24" fill="#343434"/>
  </g>
  <rect x="758" y="118" width="252" height="70" rx="22" fill="#FFFFFF" opacity="0.08"/>
  <text x="804" y="162" font-family="Arial, Helvetica, sans-serif" font-size="28" font-weight="700" fill="#FFFFFF">Evento em operacao</text>
  <g>
    <rect x="424" y="208" width="352" height="462" rx="34" fill="#181818"/>
    <rect x="454" y="238" width="292" height="116" rx="18" fill="#FFD54A"/>
    <text x="524" y="304" font-family="Arial, Helvetica, sans-serif" font-size="34" font-weight="700" fill="#111111">Mix Smart</text>
    <rect x="454" y="384" width="292" height="246" rx="24" fill="#FCFCFC"/>
    <rect x="454" y="384" width="292" height="72" rx="24" fill="#E30613"/>
    <text x="488" y="428" font-family="Arial, Helvetica, sans-serif" font-size="18" font-weight="700" fill="#FFFFFF">Venda em evento</text>
    <rect x="484" y="486" width="232" height="42" rx="12" fill="#F1F1F1"/>
    <text x="506" y="514" font-family="Arial, Helvetica, sans-serif" font-size="16" fill="#7B7B7B">Pesquisar produto</text>
    <text x="492" y="566" font-family="Arial, Helvetica, sans-serif" font-size="20" font-weight="700" fill="#171717">Cerveja</text>
    <text x="648" y="566" font-family="Arial, Helvetica, sans-serif" font-size="16" fill="#E30613">R$ 8,00</text>
    <text x="492" y="602" font-family="Arial, Helvetica, sans-serif" font-size="20" font-weight="700" fill="#171717">Ingresso</text>
    <text x="644" y="602" font-family="Arial, Helvetica, sans-serif" font-size="16" fill="#E30613">R$ 60,00</text>
  </g>
  <rect x="148" y="168" width="210" height="64" rx="20" fill="#E30613" opacity="0.92"/>
  <text x="186" y="209" font-family="Arial, Helvetica, sans-serif" font-size="26" font-weight="700" fill="#FFFFFF">Filas menores</text>
  <rect x="820" y="702" width="244" height="76" rx="26" fill="#FFFFFF" opacity="0.1" stroke="#FFFFFF" stroke-opacity="0.12"/>
  <text x="862" y="750" font-family="Arial, Helvetica, sans-serif" font-size="28" font-weight="700" fill="#FFFFFF">Velocidade</text>
</svg>